<svg width="30" height="30" viewBox="0 0 30 30" fill="none" xmlns="http://www.w3.org/2000/svg">
<path d="M29.0626 12.375L15.3413 26.0975C13.759 27.6798 11.6128 28.5688 9.37505 28.5688C7.13727 28.5688 4.99115 27.6798 3.4088 26.0975C1.82645 24.5151 0.9375 22.369 0.9375 20.1312C0.9375 17.8934 1.82645 15.7473 3.4088 14.165L14.6788 2.8962C15.1977 2.35896 15.8184 1.93043 16.5047 1.63563C17.1909 1.34083 17.929 1.18566 18.6759 1.17917C19.4228 1.17268 20.1635 1.315 20.8548 1.59783C21.5461 1.88066 22.1741 2.29833 22.7023 2.82648C23.2304 3.35463 23.6481 3.98267 23.9309 4.67396C24.2138 5.36525 24.3561 6.10595 24.3496 6.85283C24.3431 7.59972 24.1879 8.33783 23.8931 9.0241C23.5983 9.71037 23.1698 10.3311 22.6326 10.85L11.3638 22.125C10.8334 22.6374 10.123 22.921 9.38561 22.9147C8.64818 22.9084 7.94272 22.6127 7.42118 22.0913C6.89964 21.5699 6.60374 20.8646 6.59722 20.1271C6.59069 19.3897 6.87406 18.6792 7.3863 18.1487L18.6563 6.87495" stroke="#0077FF" stroke-width="1.5" stroke-linecap="round" stroke-linejoin="round"/>
</svg>
