<svg width="116" height="101" viewBox="0 0 116 101" fill="none" xmlns="http://www.w3.org/2000/svg">
<path d="M54.5 100.307C77.037 100.307 95.3068 82.037 95.3068 59.5C95.3068 36.963 77.037 18.6932 54.5 18.6932C31.9631 18.6932 13.6932 36.963 13.6932 59.5C13.6932 82.037 31.9631 100.307 54.5 100.307Z" fill="#111111"/>
<path d="M45.3565 78.8028C44.2732 78.8028 43.1898 78.3894 42.3632 77.563L30.0027 65.2025C28.3497 63.5494 28.3497 60.8691 30.0027 59.2161C31.6561 57.5631 34.336 57.5631 35.9891 59.2161L45.3565 68.5832L71.4867 42.4528C73.14 40.7998 75.82 40.7998 77.473 42.4528C79.1261 44.1059 79.1261 46.7862 77.473 48.4392L48.3496 77.5628C47.5232 78.3894 46.4401 78.8028 45.3565 78.8028Z" fill="white"/>
<path d="M54.5 96.0737C53.565 96.0737 52.8068 95.3157 52.8068 94.3805C52.8068 93.4454 53.565 92.6874 54.5 92.6874C69.6924 92.6874 82.9178 82.4195 86.6623 67.7176C86.8929 66.8113 87.8138 66.2636 88.7209 66.4947C89.6274 66.7255 90.1747 67.6474 89.944 68.5535C85.8171 84.757 71.2421 96.0737 54.5 96.0737Z" fill="white"/>
<path d="M89.349 62.7171C89.3242 62.7171 89.2995 62.7166 89.2746 62.7156C88.3402 62.6752 87.6156 61.885 87.6561 60.9508C87.6767 60.4722 87.6873 59.9841 87.6873 59.5C87.6873 58.5648 88.4455 57.8068 89.3805 57.8068C90.3155 57.8068 91.0737 58.5648 91.0737 59.5C91.0737 60.0326 91.0622 60.5698 91.0393 61.0969C91 62.0063 90.2504 62.7171 89.349 62.7171Z" fill="white"/>
<path d="M54 3.14428C54 2.82587 53.8325 2.66667 53.8325 2.34826C53.6649 2.18906 53.6649 1.87065 53.4974 1.71144C53.3299 1.55224 53.1623 1.23383 52.9948 1.07463C51.3194 -0.358209 48.8063 -0.358209 47.1309 1.07463C46.9634 1.23383 46.7958 1.39304 46.6283 1.71144C46.4607 1.87065 46.2932 2.18906 46.2932 2.34826C46.1257 2.66667 46.1257 2.82587 46.1257 3.14428C45.9581 3.62189 45.9581 4.25871 46.1257 4.73632C46.1257 5.05473 46.2932 5.21393 46.2932 5.53234C46.4607 5.85075 46.4607 6.00995 46.6283 6.16915C46.7958 6.32836 46.9634 6.64677 47.1309 6.80597C48.8063 8.39801 51.3194 8.39801 52.9948 6.80597C53.1623 6.64677 53.3299 6.48756 53.4974 6.16915C53.6649 6.00995 53.8325 5.69154 53.8325 5.53234C54 5.37314 54 5.05473 54 4.73632C54 4.0995 54 3.62189 54 3.14428Z" fill="#FFCC00"/>
<path d="M89 11.9303C89 11.5323 88.7906 11.3333 88.7906 10.9353C88.5812 10.7363 88.5812 10.3383 88.3718 10.1393C88.1623 9.9403 87.9529 9.54229 87.7435 9.34328C85.6492 7.55224 82.5079 7.55224 80.4136 9.34328C80.2042 9.54229 79.9948 9.7413 79.7853 10.1393C79.5759 10.3383 79.3665 10.7363 79.3665 10.9353C79.1571 11.3333 79.1571 11.5323 79.1571 11.9303C78.9476 12.5274 78.9476 13.3234 79.1571 13.9204C79.1571 14.3184 79.3665 14.5174 79.3665 14.9154C79.5759 15.3134 79.5759 15.5124 79.7853 15.7114C79.9948 15.9104 80.2042 16.3085 80.4136 16.5075C82.5079 18.4975 85.6492 18.4975 87.7435 16.5075C87.9529 16.3085 88.1623 16.1095 88.3718 15.7114C88.5812 15.5124 88.7906 15.1144 88.7906 14.9154C89 14.7164 89 14.3184 89 13.9204C89 13.1244 89 12.5274 89 11.9303Z" fill="#FFCC00"/>
<path d="M100.924 91.0367C100.924 90.8305 100.821 90.7273 100.821 90.5211C100.718 90.418 100.718 90.2117 100.615 90.1086C100.512 90.0055 100.409 89.7992 100.305 89.6961C99.2742 88.768 97.7274 88.768 96.6961 89.6961C96.593 89.7992 96.4898 89.9024 96.3867 90.1086C96.2836 90.2117 96.1805 90.418 96.1805 90.5211C96.0774 90.7273 96.0773 90.8305 96.0773 91.0367C95.9742 91.3461 95.9742 91.7586 96.0773 92.068C96.0773 92.2742 96.1805 92.3773 96.1805 92.5836C96.2836 92.7898 96.2836 92.893 96.3867 92.9961C96.4898 93.0992 96.593 93.3055 96.6961 93.4086C97.7274 94.4398 99.2742 94.4398 100.305 93.4086C100.409 93.3055 100.512 93.2023 100.615 92.9961C100.718 92.893 100.821 92.6867 100.821 92.5836C100.924 92.4805 100.924 92.2742 100.924 92.068C101.027 91.7586 101.027 91.4492 100.924 91.0367Z" fill="#FFCC00"/>
<path d="M105.924 68.0367C105.924 67.8305 105.821 67.7273 105.821 67.5211C105.718 67.418 105.718 67.2117 105.615 67.1086C105.512 67.0055 105.409 66.7992 105.305 66.6961C104.274 65.768 102.727 65.768 101.696 66.6961C101.593 66.7992 101.49 66.9024 101.387 67.1086C101.284 67.2117 101.18 67.418 101.18 67.5211C101.077 67.7273 101.077 67.8305 101.077 68.0367C100.974 68.3461 100.974 68.7586 101.077 69.068C101.077 69.2742 101.18 69.3773 101.18 69.5836C101.284 69.7898 101.284 69.893 101.387 69.9961C101.49 70.0992 101.593 70.3055 101.696 70.4086C102.727 71.4398 104.274 71.4398 105.305 70.4086C105.409 70.3055 105.512 70.2023 105.615 69.9961C105.718 69.893 105.821 69.6867 105.821 69.5836C105.924 69.4805 105.924 69.2742 105.924 69.068C106.027 68.7586 106.027 68.4492 105.924 68.0367Z" fill="#FFCC00"/>
<path d="M115.768 38.8955C115.768 38.2985 115.459 38 115.459 37.403C115.149 37.1045 115.149 36.5075 114.84 36.209C114.531 35.9105 114.222 35.3134 113.912 35.0149C110.82 32.3284 106.18 32.3284 103.088 35.0149C102.778 35.3134 102.469 35.612 102.16 36.209C101.851 36.5075 101.541 37.1045 101.541 37.403C101.232 38 101.232 38.2985 101.232 38.8955C100.923 39.791 100.923 40.9851 101.232 41.8806C101.232 42.4776 101.541 42.7761 101.541 43.3731C101.851 43.9701 101.851 44.2686 102.16 44.5671C102.469 44.8656 102.778 45.4627 103.088 45.7612C106.18 48.7463 110.82 48.7463 113.912 45.7612C114.222 45.4627 114.531 45.1642 114.84 44.5671C115.149 44.2686 115.459 43.6716 115.459 43.3731C115.768 43.0746 115.768 42.4776 115.768 41.8806C116.077 40.9851 116.077 40.0896 115.768 38.8955Z" fill="#FFCC00"/>
<path d="M5.02735 35.0367C5.02735 34.8305 4.92422 34.7273 4.92422 34.5211C4.82109 34.418 4.82109 34.2117 4.71797 34.1086C4.61484 34.0055 4.51172 33.7992 4.4086 33.6961C3.37734 32.768 1.83047 32.768 0.79922 33.6961C0.696095 33.7992 0.59297 33.9023 0.489845 34.1086C0.283595 34.418 0.180469 34.7273 0.0773438 35.0367C-0.0257813 35.3461 -0.0257813 35.7586 0.0773438 36.068C0.0773438 36.2742 0.180469 36.3773 0.180469 36.5836C0.283594 36.7898 0.283595 36.893 0.38672 36.9961C0.489845 37.0992 0.592969 37.3055 0.696094 37.4086C1.72734 38.4398 3.27422 38.4398 4.30547 37.4086C4.40859 37.3055 4.51172 37.2023 4.61485 36.9961C4.71797 36.893 4.82109 36.6867 4.82109 36.5836C4.92422 36.4805 4.92422 36.2742 4.92422 36.068C5.13047 35.6555 5.13047 35.3461 5.02735 35.0367Z" fill="#FFCC00"/>
<path d="M23.8272 13.1095C23.8272 12.592 23.564 12.3333 23.564 11.8159C23.3009 11.5572 23.3009 11.0398 23.0378 10.7811C22.7747 10.5224 22.5116 10.005 22.2484 9.74627C19.6172 7.41791 15.6704 7.41791 13.0392 9.74627C12.7761 10.005 12.513 10.2637 12.2498 10.7811C11.7236 11.5572 11.4605 12.3333 11.1973 13.1095C10.9342 13.8856 10.9342 14.9204 11.1973 15.6965C11.1973 16.2139 11.4605 16.4726 11.4605 16.9901C11.7236 17.5075 11.7236 17.7662 11.9867 18.0249C12.2498 18.2836 12.5129 18.801 12.7761 19.0597C15.4073 21.6468 19.3541 21.6468 21.9853 19.0597C22.2484 18.801 22.5116 18.5423 22.7747 18.0249C23.0378 17.7662 23.3009 17.2488 23.3009 16.9901C23.564 16.7313 23.564 16.2139 23.564 15.6965C24.0903 14.6617 24.0903 13.8856 23.8272 13.1095Z" fill="#FFCC00"/>
</svg>
